<svg width="122" height="33" viewBox="0 0 122 33" fill="none" xmlns="http://www.w3.org/2000/svg">
  <path d="M10.4401 25.6285L0 16.5L10.4401 7.37152L12.2222 9.40888L4.125 16.5L12.2222 23.5912L10.4401 25.6285Z" fill="#282828"/>
  <path d="M111.372 25.6285L109.59 23.5912L117.688 16.5L109.59 9.40888L111.372 7.37152L121.813 16.5L111.372 25.6285Z" fill="#282828"/>
  <path d="M101.713 28.1016L99.125 27.3333L106.076 4.125L108.664 4.89328L101.713 28.1016Z" fill="#282828"/>
  <path d="M17.3414 23V9.80322H21.2388C22.405 9.80322 23.4383 10.063 24.3386 10.5827C25.245 11.1024 25.9459 11.8395 26.4414 12.7943C26.9369 13.749 27.1846 14.8427 27.1846 16.0753V16.737C27.1846 17.9878 26.9339 19.0875 26.4323 20.0362C25.9369 20.9848 25.2269 21.716 24.3024 22.2296C23.3839 22.7432 22.3295 23 21.1391 23H17.3414ZM19.6346 11.6522V21.1691H21.1301C22.3325 21.1691 23.254 20.7945 23.8945 20.0452C24.541 19.2899 24.8704 18.2083 24.8824 16.8004V16.0663C24.8824 14.6342 24.5713 13.5405 23.9489 12.7852C23.3265 12.0299 22.4232 11.6522 21.2388 11.6522H19.6346Z" fill="#282828"/>
  <path d="M33.5746 23.1813C32.1787 23.1813 31.0458 22.7432 30.1757 21.867C29.3116 20.9848 28.8795 19.8126 28.8795 18.3503V18.0784C28.8795 17.0995 29.0669 16.2264 29.4415 15.459C29.8222 14.6855 30.3539 14.0843 31.0367 13.6553C31.7195 13.2263 32.4809 13.0118 33.3208 13.0118C34.6562 13.0118 35.6864 13.4378 36.4115 14.2898C37.1426 15.1418 37.5082 16.3472 37.5082 17.9062V18.7944H31.1002C31.1666 19.6041 31.4355 20.2446 31.9068 20.7159C32.3842 21.1873 32.9824 21.4229 33.7014 21.4229C34.7105 21.4229 35.5323 21.015 36.1668 20.1993L37.3541 21.3323C36.9614 21.9184 36.4357 22.3746 35.777 22.7009C35.1245 23.0211 34.3903 23.1813 33.5746 23.1813ZM33.3117 14.7792C32.7075 14.7792 32.218 14.9907 31.8434 15.4137C31.4748 15.8366 31.2391 16.4258 31.1364 17.1811H35.3329V17.0179C35.2846 16.2808 35.0882 15.7249 34.7438 15.3502C34.3994 14.9695 33.922 14.7792 33.3117 14.7792Z" fill="#282828"/>
  <path d="M42.5567 20.2084L44.6323 13.1931H46.9073L43.5084 23H41.5959L38.1699 13.1931H40.4539L42.5567 20.2084Z" fill="#282828"/>
  <path d="M58.9802 23H56.6961V17.1358H50.7956V23H48.5025V9.80322H50.7956V15.2958H56.6961V9.80322H58.9802V23Z" fill="#282828"/>
  <path d="M61.0739 18.0059C61.0739 17.0451 61.2642 16.1811 61.6449 15.4137C62.0256 14.6402 62.5603 14.0481 63.2492 13.6372C63.938 13.2202 64.7296 13.0118 65.6239 13.0118C66.9472 13.0118 68.0197 13.4378 68.8415 14.2898C69.6693 15.1418 70.1165 16.2717 70.1829 17.6796L70.192 18.1962C70.192 19.163 70.0047 20.0271 69.63 20.7885C69.2614 21.5498 68.7297 22.1389 68.0348 22.5559C67.346 22.9728 66.5484 23.1813 65.642 23.1813C64.2583 23.1813 63.1495 22.722 62.3156 21.8036C61.4878 20.8791 61.0739 19.6494 61.0739 18.1147V18.0059ZM63.2764 18.1962C63.2764 19.2053 63.4848 19.9969 63.9018 20.5709C64.3187 21.1389 64.8988 21.4229 65.642 21.4229C66.3852 21.4229 66.9623 21.1329 67.3732 20.5528C67.7901 19.9727 67.9986 19.1237 67.9986 18.0059C67.9986 17.0149 67.7841 16.2294 67.355 15.6493C66.9321 15.0692 66.355 14.7792 65.6239 14.7792C64.9048 14.7792 64.3338 15.0662 63.9108 15.6403C63.4879 16.2083 63.2764 17.0602 63.2764 18.1962Z" fill="#282828"/>
  <path d="M74.1256 13.1931L74.1891 14.2173C74.8779 13.4136 75.8206 13.0118 77.017 13.0118C78.3282 13.0118 79.2255 13.5133 79.7089 14.5164C80.4219 13.5133 81.425 13.0118 82.718 13.0118C83.7997 13.0118 84.6033 13.3109 85.129 13.9091C85.6607 14.5073 85.9326 15.3895 85.9447 16.5557V23H83.7422V16.6191C83.7422 15.9968 83.6063 15.5406 83.3344 15.2505C83.0625 14.9605 82.6123 14.8155 81.9839 14.8155C81.4824 14.8155 81.0715 14.9514 80.7512 15.2233C80.437 15.4892 80.2165 15.8397 80.0896 16.2747L80.0986 23H77.8961V16.5466C77.8659 15.3925 77.2768 14.8155 76.1287 14.8155C75.2465 14.8155 74.6211 15.175 74.2525 15.894V23H72.05V13.1931H74.1256Z" fill="#282828"/>
  <path d="M92.525 23.1813C91.1292 23.1813 89.9962 22.7432 89.1261 21.867C88.262 20.9848 87.83 19.8126 87.83 18.3503V18.0784C87.83 17.0995 88.0173 16.2264 88.3919 15.459C88.7726 14.6855 89.3044 14.0843 89.9872 13.6553C90.67 13.2263 91.4313 13.0118 92.2712 13.0118C93.6066 13.0118 94.6368 13.4378 95.3619 14.2898C96.0931 15.1418 96.4586 16.3472 96.4586 17.9062V18.7944H90.0506C90.1171 19.6041 90.386 20.2446 90.8573 20.7159C91.3346 21.1873 91.9328 21.4229 92.6519 21.4229C93.661 21.4229 94.4828 21.015 95.1172 20.1993L96.3046 21.3323C95.9118 21.9184 95.3861 22.3746 94.7275 22.7009C94.0749 23.0211 93.3407 23.1813 92.525 23.1813ZM92.2621 14.7792C91.6579 14.7792 91.1685 14.9907 90.7938 15.4137C90.4252 15.8366 90.1896 16.4258 90.0869 17.1811H94.2834V17.0179C94.235 16.2808 94.0386 15.7249 93.6942 15.3502C93.3498 14.9695 92.8724 14.7792 92.2621 14.7792Z" fill="#282828"/>
</svg>
